<mxfile host="app.diagrams.net" agent="Mozilla/5.0 (Windows NT 10.0; Win64; x64) AppleWebKit/537.36 (KHTML, like Gecko) Chrome/129.0.0.0 Safari/537.36" version="24.7.17">
  <diagram name="Page-1" id="57Vel5VW9AhDojWxhs7Z">
    <mxGraphModel dx="1434" dy="780" grid="1" gridSize="10" guides="1" tooltips="1" connect="1" arrows="1" fold="1" page="1" pageScale="1" pageWidth="827" pageHeight="1169" math="0" shadow="0">
      <root>
        <mxCell id="0" />
        <mxCell id="1" parent="0" />
        <mxCell id="QplKqRVQKg5-z3EIvqk3-2" value="Mammal" style="swimlane;fontStyle=0;childLayout=stackLayout;horizontal=1;startSize=30;horizontalStack=0;resizeParent=1;resizeParentMax=0;resizeLast=0;collapsible=1;marginBottom=0;whiteSpace=wrap;html=1;" vertex="1" parent="1">
          <mxGeometry x="480" y="30" width="180" height="180" as="geometry" />
        </mxCell>
        <mxCell id="QplKqRVQKg5-z3EIvqk3-3" value="- age int" style="text;strokeColor=none;fillColor=none;align=left;verticalAlign=middle;spacingLeft=4;spacingRight=4;overflow=hidden;points=[[0,0.5],[1,0.5]];portConstraint=eastwest;rotatable=0;whiteSpace=wrap;html=1;" vertex="1" parent="QplKqRVQKg5-z3EIvqk3-2">
          <mxGeometry y="30" width="180" height="30" as="geometry" />
        </mxCell>
        <mxCell id="QplKqRVQKg5-z3EIvqk3-4" value="- name string" style="text;strokeColor=none;fillColor=none;align=left;verticalAlign=middle;spacingLeft=4;spacingRight=4;overflow=hidden;points=[[0,0.5],[1,0.5]];portConstraint=eastwest;rotatable=0;whiteSpace=wrap;html=1;" vertex="1" parent="QplKqRVQKg5-z3EIvqk3-2">
          <mxGeometry y="60" width="180" height="30" as="geometry" />
        </mxCell>
        <mxCell id="QplKqRVQKg5-z3EIvqk3-5" value="- eat()&lt;div&gt;&lt;br&gt;&lt;/div&gt;&lt;div&gt;- sleep()&lt;/div&gt;&lt;div&gt;&lt;br&gt;&lt;/div&gt;&lt;div&gt;- makeSound()&lt;/div&gt;" style="text;strokeColor=none;fillColor=none;align=left;verticalAlign=middle;spacingLeft=4;spacingRight=4;overflow=hidden;points=[[0,0.5],[1,0.5]];portConstraint=eastwest;rotatable=0;whiteSpace=wrap;html=1;" vertex="1" parent="QplKqRVQKg5-z3EIvqk3-2">
          <mxGeometry y="90" width="180" height="90" as="geometry" />
        </mxCell>
        <mxCell id="QplKqRVQKg5-z3EIvqk3-9" value="" style="endArrow=none;html=1;rounded=0;entryX=-0.017;entryY=0.022;entryDx=0;entryDy=0;entryPerimeter=0;exitX=1;exitY=-0.011;exitDx=0;exitDy=0;exitPerimeter=0;" edge="1" parent="QplKqRVQKg5-z3EIvqk3-2" source="QplKqRVQKg5-z3EIvqk3-5" target="QplKqRVQKg5-z3EIvqk3-5">
          <mxGeometry width="50" height="50" relative="1" as="geometry">
            <mxPoint x="180" y="100" as="sourcePoint" />
            <mxPoint y="104" as="targetPoint" />
          </mxGeometry>
        </mxCell>
        <mxCell id="QplKqRVQKg5-z3EIvqk3-10" value="Dog" style="swimlane;fontStyle=0;childLayout=stackLayout;horizontal=1;startSize=30;horizontalStack=0;resizeParent=1;resizeParentMax=0;resizeLast=0;collapsible=1;marginBottom=0;whiteSpace=wrap;html=1;" vertex="1" parent="1">
          <mxGeometry x="100" y="320" width="170" height="150" as="geometry" />
        </mxCell>
        <mxCell id="QplKqRVQKg5-z3EIvqk3-11" value="- breed" style="text;strokeColor=none;fillColor=none;align=left;verticalAlign=middle;spacingLeft=4;spacingRight=4;overflow=hidden;points=[[0,0.5],[1,0.5]];portConstraint=eastwest;rotatable=0;whiteSpace=wrap;html=1;" vertex="1" parent="QplKqRVQKg5-z3EIvqk3-10">
          <mxGeometry y="30" width="170" height="30" as="geometry" />
        </mxCell>
        <mxCell id="QplKqRVQKg5-z3EIvqk3-14" value="" style="endArrow=none;html=1;rounded=0;exitX=0.994;exitY=0.122;exitDx=0;exitDy=0;exitPerimeter=0;" edge="1" parent="QplKqRVQKg5-z3EIvqk3-10" source="QplKqRVQKg5-z3EIvqk3-13">
          <mxGeometry width="50" height="50" relative="1" as="geometry">
            <mxPoint x="180" y="70" as="sourcePoint" />
            <mxPoint y="74" as="targetPoint" />
          </mxGeometry>
        </mxCell>
        <mxCell id="QplKqRVQKg5-z3EIvqk3-13" value="- makeSound()&lt;div&gt;&lt;br&gt;&lt;/div&gt;&lt;div&gt;- move()&lt;/div&gt;&lt;div&gt;-bark()&lt;/div&gt;" style="text;strokeColor=none;fillColor=none;align=left;verticalAlign=middle;spacingLeft=4;spacingRight=4;overflow=hidden;points=[[0,0.5],[1,0.5]];portConstraint=eastwest;rotatable=0;whiteSpace=wrap;html=1;" vertex="1" parent="QplKqRVQKg5-z3EIvqk3-10">
          <mxGeometry y="60" width="170" height="90" as="geometry" />
        </mxCell>
        <mxCell id="QplKqRVQKg5-z3EIvqk3-15" value="Cat" style="swimlane;fontStyle=0;childLayout=stackLayout;horizontal=1;startSize=30;horizontalStack=0;resizeParent=1;resizeParentMax=0;resizeLast=0;collapsible=1;marginBottom=0;whiteSpace=wrap;html=1;" vertex="1" parent="1">
          <mxGeometry x="520" y="320" width="170" height="150" as="geometry" />
        </mxCell>
        <mxCell id="QplKqRVQKg5-z3EIvqk3-16" value="- furColor String" style="text;strokeColor=none;fillColor=none;align=left;verticalAlign=middle;spacingLeft=4;spacingRight=4;overflow=hidden;points=[[0,0.5],[1,0.5]];portConstraint=eastwest;rotatable=0;whiteSpace=wrap;html=1;" vertex="1" parent="QplKqRVQKg5-z3EIvqk3-15">
          <mxGeometry y="30" width="170" height="30" as="geometry" />
        </mxCell>
        <mxCell id="QplKqRVQKg5-z3EIvqk3-17" value="" style="endArrow=none;html=1;rounded=0;exitX=0.994;exitY=0.122;exitDx=0;exitDy=0;exitPerimeter=0;" edge="1" parent="QplKqRVQKg5-z3EIvqk3-15" source="QplKqRVQKg5-z3EIvqk3-18">
          <mxGeometry width="50" height="50" relative="1" as="geometry">
            <mxPoint x="180" y="70" as="sourcePoint" />
            <mxPoint y="74" as="targetPoint" />
          </mxGeometry>
        </mxCell>
        <mxCell id="QplKqRVQKg5-z3EIvqk3-18" value="- makeSound()&lt;div&gt;&lt;br&gt;&lt;/div&gt;&lt;div&gt;- move()&lt;/div&gt;&lt;div&gt;-meow&lt;/div&gt;" style="text;strokeColor=none;fillColor=none;align=left;verticalAlign=middle;spacingLeft=4;spacingRight=4;overflow=hidden;points=[[0,0.5],[1,0.5]];portConstraint=eastwest;rotatable=0;whiteSpace=wrap;html=1;" vertex="1" parent="QplKqRVQKg5-z3EIvqk3-15">
          <mxGeometry y="60" width="170" height="90" as="geometry" />
        </mxCell>
        <mxCell id="QplKqRVQKg5-z3EIvqk3-27" value="Animal" style="swimlane;fontStyle=0;childLayout=stackLayout;horizontal=1;startSize=30;horizontalStack=0;resizeParent=1;resizeParentMax=0;resizeLast=0;collapsible=1;marginBottom=0;whiteSpace=wrap;html=1;" vertex="1" parent="1">
          <mxGeometry x="60" y="60" width="140" height="90" as="geometry" />
        </mxCell>
        <mxCell id="QplKqRVQKg5-z3EIvqk3-28" value="makeSound()" style="text;strokeColor=none;fillColor=none;align=left;verticalAlign=middle;spacingLeft=4;spacingRight=4;overflow=hidden;points=[[0,0.5],[1,0.5]];portConstraint=eastwest;rotatable=0;whiteSpace=wrap;html=1;" vertex="1" parent="QplKqRVQKg5-z3EIvqk3-27">
          <mxGeometry y="30" width="140" height="30" as="geometry" />
        </mxCell>
        <mxCell id="QplKqRVQKg5-z3EIvqk3-29" value="move" style="text;strokeColor=none;fillColor=none;align=left;verticalAlign=middle;spacingLeft=4;spacingRight=4;overflow=hidden;points=[[0,0.5],[1,0.5]];portConstraint=eastwest;rotatable=0;whiteSpace=wrap;html=1;" vertex="1" parent="QplKqRVQKg5-z3EIvqk3-27">
          <mxGeometry y="60" width="140" height="30" as="geometry" />
        </mxCell>
        <mxCell id="QplKqRVQKg5-z3EIvqk3-31" value="" style="endArrow=classic;html=1;rounded=0;entryX=1;entryY=1;entryDx=0;entryDy=0;entryPerimeter=0;exitX=-0.006;exitY=0.011;exitDx=0;exitDy=0;exitPerimeter=0;" edge="1" parent="1" source="QplKqRVQKg5-z3EIvqk3-5" target="QplKqRVQKg5-z3EIvqk3-28">
          <mxGeometry width="50" height="50" relative="1" as="geometry">
            <mxPoint x="390" y="330" as="sourcePoint" />
            <mxPoint x="440" y="280" as="targetPoint" />
          </mxGeometry>
        </mxCell>
        <mxCell id="QplKqRVQKg5-z3EIvqk3-33" value="Impements" style="edgeLabel;html=1;align=center;verticalAlign=middle;resizable=0;points=[];" vertex="1" connectable="0" parent="QplKqRVQKg5-z3EIvqk3-31">
          <mxGeometry x="0.0105" relative="1" as="geometry">
            <mxPoint as="offset" />
          </mxGeometry>
        </mxCell>
        <mxCell id="QplKqRVQKg5-z3EIvqk3-34" value="" style="endArrow=classic;html=1;rounded=0;exitX=1;exitY=0.5;exitDx=0;exitDy=0;entryX=0.056;entryY=1.033;entryDx=0;entryDy=0;entryPerimeter=0;" edge="1" parent="1" source="QplKqRVQKg5-z3EIvqk3-11" target="QplKqRVQKg5-z3EIvqk3-5">
          <mxGeometry width="50" height="50" relative="1" as="geometry">
            <mxPoint x="390" y="330" as="sourcePoint" />
            <mxPoint x="440" y="280" as="targetPoint" />
          </mxGeometry>
        </mxCell>
        <mxCell id="QplKqRVQKg5-z3EIvqk3-35" value="extends" style="edgeLabel;html=1;align=center;verticalAlign=middle;resizable=0;points=[];" vertex="1" connectable="0" parent="QplKqRVQKg5-z3EIvqk3-34">
          <mxGeometry x="-0.0273" relative="1" as="geometry">
            <mxPoint as="offset" />
          </mxGeometry>
        </mxCell>
        <mxCell id="QplKqRVQKg5-z3EIvqk3-36" value="" style="endArrow=classic;html=1;rounded=0;entryX=0.6;entryY=1.044;entryDx=0;entryDy=0;entryPerimeter=0;exitX=0.382;exitY=0.02;exitDx=0;exitDy=0;exitPerimeter=0;" edge="1" parent="1" source="QplKqRVQKg5-z3EIvqk3-15" target="QplKqRVQKg5-z3EIvqk3-5">
          <mxGeometry width="50" height="50" relative="1" as="geometry">
            <mxPoint x="390" y="330" as="sourcePoint" />
            <mxPoint x="440" y="280" as="targetPoint" />
          </mxGeometry>
        </mxCell>
        <mxCell id="QplKqRVQKg5-z3EIvqk3-37" value="extends" style="edgeLabel;html=1;align=center;verticalAlign=middle;resizable=0;points=[];" vertex="1" connectable="0" parent="QplKqRVQKg5-z3EIvqk3-36">
          <mxGeometry x="0.0274" relative="1" as="geometry">
            <mxPoint as="offset" />
          </mxGeometry>
        </mxCell>
      </root>
    </mxGraphModel>
  </diagram>
</mxfile>
